<!-- Generated by IcoMoon.io -->
<svg version="1.1" xmlns="http://www.w3.org/2000/svg" width="1024" height="1024" viewBox="0 0 1024 1024">
<title></title>
<g id="icomoon-ignore">
</g>
<path fill="#000" d="M457.716 998.2c-47.203 0-146.332-25.962-236.021-87.328-84.968-59.004-188.815-172.294-200.616-372.91-9.441-261.982 195.896-488.56 462.599-507.442 264.343-16.521 500.361 177.014 526.323 431.916 11.801 125.091-28.322 254.902-115.65 356.389-89.688 103.849-219.497 169.934-354.029 177.014-16.521 0-30.682-7.080-40.123-16.521-4.72 7.080-14.161 14.161-23.602 16.521-4.72 2.36-11.801 2.36-18.881 2.36zM462.437 903.794c14.161 0 28.322 7.080 37.763 16.521 7.080-11.801 21.241-18.881 35.402-18.881 110.93-7.080 217.137-59.004 287.944-143.972 70.805-82.608 103.849-184.095 92.048-285.584-21.241-205.336-210.057-361.109-424.836-346.948-212.417 14.161-382.351 200.616-372.91 405.955 16.521 325.707 318.626 370.55 339.868 372.91 0 0 2.36 0 4.72 0zM448.276 906.154c0 0 0 0 0 0s0 0 0 0zM448.276 906.154v0 0z"></path>
<path fill="#000" d="M729.137 729.137c-23.602 0-44.843-18.881-47.203-42.483-2.36-25.962 16.521-49.563 42.483-51.924 2.36 0 11.801-7.080 18.881-23.602 14.161-33.042 14.161-82.608-9.441-113.29-21.241-25.962-56.644-42.483-89.688-40.123s-61.364 25.962-82.608 63.724c-11.801 23.602-40.123 33.042-63.724 18.881-23.602-11.801-33.042-40.123-18.881-63.724 35.402-68.445 92.048-108.57 158.133-113.29 63.724-4.72 132.171 23.602 172.294 75.526 47.203 61.364 44.843 151.053 21.241 207.697-18.881 47.203-54.284 75.526-94.409 80.248-2.36 2.36-4.72 2.36-7.080 2.36z"></path>
<path fill="#000" d="M521.441 547.402c-16.521 0-33.042-9.441-40.123-23.602-37.763-63.724-42.483-132.171-11.801-193.536 30.682-59.004 94.409-103.849 160.493-108.57 89.688-9.441 160.493 42.483 193.536 89.688 28.322 42.483 37.763 84.968 18.881 122.731-11.801 23.602-40.123 33.042-63.724 23.602-23.602-11.801-33.042-40.123-23.602-63.724 0-2.36 0-16.521-16.521-33.042-18.881-23.602-56.644-47.203-103.849-44.843-35.402 2.36-68.445 28.322-84.968 59.004s-11.801 63.724 9.441 101.489c14.161 23.602 4.72 51.924-16.521 63.724-4.72 4.72-14.161 7.080-21.241 7.080z"></path>
<path fill="#000" d="M521.441 547.402c0 0-2.36 0 0 0-75.526-2.36-136.892-33.042-172.294-87.328s-42.483-127.451-16.521-193.536c23.602-61.364 82.608-106.209 155.773-115.65 63.724-9.441 125.091 11.801 153.413 49.563 16.521 21.241 11.801 49.563-9.441 66.085s-49.563 11.801-66.085-9.441c-7.080-4.72-30.682-16.521-66.085-11.801-18.881 2.36-63.724 11.801-80.248 56.644-14.161 37.763-11.801 77.887 7.080 106.209s51.924 42.483 94.409 44.843c25.962 0 47.203 23.602 44.843 49.563 0 25.962-18.881 44.843-44.843 44.843z"></path>
<path fill="#000" d="M377.469 630.010c-2.36 0-2.36 0-4.72 0-66.085-2.36-127.451-33.042-158.133-84.968-35.402-56.644-40.123-136.892-9.441-198.256 23.602-47.203 63.724-77.887 113.29-84.968 25.962-2.36 49.563 14.161 51.924 40.123s-14.161 49.563-40.123 51.924c-16.521 2.36-30.682 11.801-40.123 30.682-16.521 33.042-14.161 77.887 4.72 108.57 14.161 23.602 47.203 40.123 80.248 40.123 23.602 0 70.805-7.080 106.209-61.364 14.161-21.241 44.843-28.322 66.085-14.161s28.322 44.843 14.161 66.085c-44.843 68.445-113.29 106.209-184.095 106.209z"></path>
<path fill="#000" d="M386.909 785.783c-66.085 0-132.171-30.682-167.574-80.248-30.682-40.123-37.763-89.688-23.602-136.892 7.080-25.962 33.042-40.123 59.004-30.682 25.962 7.080 40.123 33.042 30.682 59.004-7.080 21.241-2.36 37.763 9.441 54.284 18.881 23.602 54.284 40.123 92.048 42.483 14.161-2.36 28.322-4.72 42.483-11.801 28.322-14.161 47.203-37.763 59.004-68.445 9.441-28.322 7.080-61.364-7.080-89.688-11.801-23.602-2.36-51.924 21.241-63.724s51.924-2.36 63.724 21.241c25.962 49.563 30.682 106.209 11.801 160.493-16.521 54.284-54.284 96.769-103.849 122.731-25.962 11.801-51.924 21.241-80.248 21.241-4.72 0-4.72 0-7.080 0z"></path>
<path fill="#000" d="M516.72 851.868c-47.203 0-87.328-18.881-110.93-51.924-14.161-21.241-9.441-49.563 9.441-66.085 21.241-14.161 49.563-9.441 66.085 9.441 9.441 11.801 28.322 11.801 37.763 11.801 40.123 0 84.968-25.962 103.849-54.284 14.161-21.241 14.161-51.924 0-80.248-18.881-40.123-59.004-66.085-110.93-73.165-25.962-4.72-44.843-28.322-40.123-54.284 2.36-25.962 28.322-44.843 54.284-40.123 84.968 11.801 151.053 59.004 184.095 129.811 25.962 56.644 23.602 122.731-7.080 172.294-37.763 56.644-108.57 96.769-179.375 99.129-2.36-2.36-4.72-2.36-7.080-2.36z"></path>
</svg>
