<?xml version="1.0" ?><svg height="256px" id="Layer_1" style="enable-background:new 0 0 256 256;" version="1.1" viewBox="0 0 256 256" width="256px" xml:space="preserve" xmlns="http://www.w3.org/2000/svg" xmlns:xlink="http://www.w3.org/1999/xlink"><style type="text/css">
	.st0{fill:none;stroke:#000000;stroke-width:4;stroke-linecap:round;stroke-linejoin:round;stroke-miterlimit:10;}
</style><g><path class="st0" d="M132.404,226.306c58.114-3.551,101.538-54.579,96.106-108.885C223.207,64.4,173.755,25.96,121.386,29.518   c-53.091,3.606-96.815,49.633-94.368,103.041c4.318,83.454,84.984,95.212,88.478,94.081"/><path class="st0" d="M128.833,124.943c15-28.667,44.333-22.667,56.5-6.833s5.417,46.161-9.333,47.833"/><path class="st0" d="M128.833,124.943c-16.344-27.922,5.503-50.27,25.379-52.185c24.462-2.356,43.287,20.435,37.658,32.591"/><path class="st0" d="M128.833,124.943c-31.316-0.927-41.01-27.526-32.757-48.776C105,53.193,138.5,51.943,147.302,63.85"/><path class="st0" d="M128.833,124.943c-17.967,26.907-49.903,21.476-60.315,4.437S63.75,84.193,83.902,81.6"/><path class="st0" d="M128.833,124.943c13.278,29.504-10.266,53.482-30.234,53.483c-18.849,0.001-39.349-14.233-33.087-35.314"/><path class="st0" d="M128.833,124.943c32.054,4.395,43.132,34.492,32.36,51.305s-39.694,23.861-49.487,10.315"/></g></svg>