<!-- Generated by IcoMoon.io -->
<svg version="1.1" xmlns="http://www.w3.org/2000/svg" width="32" height="32" viewBox="0 0 32 32">
<title>codetap</title>
<path fill="#444" d="M4.005 0h23.99c2.212 0 4.005 1.793 4.005 4.005v23.99c0 2.212-1.793 4.005-4.005 4.005h-23.99c-2.212 0-4.005-1.793-4.005-4.005v-23.99c0-2.212 1.793-4.005 4.005-4.005z"></path>
<path fill="#fff" d="M12.966 10.549l-0.246-0.249c-0.227-0.226-0.54-0.367-0.885-0.367s-0.659 0.14-0.885 0.367l-4.96 4.96c-0.226 0.227-0.367 0.54-0.367 0.885s0.14 0.659 0.367 0.885l4.96 4.96c0.227 0.227 0.54 0.367 0.885 0.367s0.659-0.14 0.885-0.367l0.249-0.249c0.226-0.227 0.367-0.54 0.367-0.885s-0.14-0.659-0.367-0.885l-2.941-2.941c-0.226-0.227-0.367-0.54-0.367-0.885s0.14-0.659 0.367-0.885l2.938-2.94c0.227-0.227 0.367-0.54 0.367-0.886s-0.14-0.659-0.367-0.886v0z"></path>
<path fill="#fff" d="M19.034 21.451l0.249 0.249c0.227 0.227 0.54 0.367 0.885 0.367s0.659-0.14 0.885-0.367l4.96-4.96c0.227-0.227 0.367-0.54 0.367-0.885s-0.14-0.659-0.367-0.885l-4.96-4.96c-0.227-0.226-0.54-0.367-0.885-0.367s-0.659 0.14-0.885 0.367l-0.249 0.249c-0.227 0.227-0.367 0.54-0.367 0.885s0.14 0.659 0.367 0.885l2.941 2.941c0.227 0.227 0.367 0.54 0.367 0.885s-0.14 0.659-0.367 0.885l-2.941 2.94c-0.227 0.227-0.367 0.54-0.367 0.886s0.14 0.659 0.367 0.886v0z"></path>
<path fill="#fff" d="M12.716 17.25l4.535-4.535c0.353-0.353 0.925-0.353 1.277 0l0.757 0.757c0.353 0.353 0.353 0.925 0 1.277l-4.535 4.535c-0.353 0.353-0.925 0.353-1.277 0l-0.757-0.757c-0.353-0.353-0.353-0.925 0-1.277z"></path>
</svg>
