<?xml version="1.0" encoding="utf-8"?>
<!-- Generator: Adobe Illustrator 24.0.0, SVG Export Plug-In . SVG Version: 6.00 Build 0)  -->
<svg version="1.1" id="Layer_1" xmlns="http://www.w3.org/2000/svg" xmlns:xlink="http://www.w3.org/1999/xlink" x="0px" y="0px"
	 viewBox="0 0 64 64" style="enable-background:new 0 0 64 64;" xml:space="preserve">
<path d="M29.7,52.6c-2,0-6.2-1.1-10-3.7c-3.6-2.5-8-7.3-8.5-15.8C10.8,22,19.5,12.4,30.8,11.6C42,10.9,52,19.1,53.1,29.9
	c0.5,5.3-1.2,10.8-4.9,15.1c-3.8,4.4-9.3,7.2-15,7.5c-0.7,0-1.3-0.3-1.7-0.7c-0.2,0.3-0.6,0.6-1,0.7C30.3,52.6,30,52.6,29.7,52.6z
	 M29.9,48.6c0.6,0,1.2,0.3,1.6,0.7c0.3-0.5,0.9-0.8,1.5-0.8c4.7-0.3,9.2-2.5,12.2-6.1c3-3.5,4.4-7.8,3.9-12.1
	c-0.9-8.7-8.9-15.3-18-14.7c-9,0.6-16.2,8.5-15.8,17.2C16,46.6,28.8,48.5,29.7,48.6C29.7,48.6,29.8,48.6,29.9,48.6z M29.3,48.7
	C29.3,48.7,29.3,48.7,29.3,48.7C29.3,48.7,29.3,48.7,29.3,48.7z M29.3,48.7L29.3,48.7L29.3,48.7z"/>
<path d="M41.2,41.2c-1,0-1.9-0.8-2-1.8c-0.1-1.1,0.7-2.1,1.8-2.2c0.1,0,0.5-0.3,0.8-1c0.6-1.4,0.6-3.5-0.4-4.8
	c-0.9-1.1-2.4-1.8-3.8-1.7c-1.4,0.1-2.6,1.1-3.5,2.7c-0.5,1-1.7,1.4-2.7,0.8c-1-0.5-1.4-1.7-0.8-2.7c1.5-2.9,3.9-4.6,6.7-4.8
	c2.7-0.2,5.6,1,7.3,3.2c2,2.6,1.9,6.4,0.9,8.8c-0.8,2-2.3,3.2-4,3.4C41.4,41.2,41.3,41.2,41.2,41.2z"/>
<path d="M32.4,33.5c-0.7,0-1.4-0.4-1.7-1c-1.6-2.7-1.8-5.6-0.5-8.2c1.3-2.5,4-4.4,6.8-4.6c3.8-0.4,6.8,1.8,8.2,3.8
	c1.2,1.8,1.6,3.6,0.8,5.2c-0.5,1-1.7,1.4-2.7,1c-1-0.5-1.4-1.7-1-2.7c0-0.1,0-0.7-0.7-1.4c-0.8-1-2.4-2-4.4-1.9
	c-1.5,0.1-2.9,1.2-3.6,2.5c-0.7,1.3-0.5,2.7,0.4,4.3c0.6,1,0.2,2.2-0.7,2.7C33.1,33.4,32.7,33.5,32.4,33.5z"/>
<path d="M32.4,33.5C32.4,33.5,32.3,33.5,32.4,33.5c-3.2-0.1-5.8-1.4-7.3-3.7c-1.5-2.3-1.8-5.4-0.7-8.2c1-2.6,3.5-4.5,6.6-4.9
	c2.7-0.4,5.3,0.5,6.5,2.1c0.7,0.9,0.5,2.1-0.4,2.8c-0.9,0.7-2.1,0.5-2.8-0.4C34,21,33,20.5,31.5,20.7c-0.8,0.1-2.7,0.5-3.4,2.4
	c-0.6,1.6-0.5,3.3,0.3,4.5c0.8,1.2,2.2,1.8,4,1.9c1.1,0,2,1,1.9,2.1C34.3,32.7,33.5,33.5,32.4,33.5z"/>
<path d="M26.3,37c-0.1,0-0.1,0-0.2,0c-2.8-0.1-5.4-1.4-6.7-3.6c-1.5-2.4-1.7-5.8-0.4-8.4c1-2,2.7-3.3,4.8-3.6
	c1.1-0.1,2.1,0.6,2.2,1.7c0.1,1.1-0.6,2.1-1.7,2.2c-0.7,0.1-1.3,0.5-1.7,1.3c-0.7,1.4-0.6,3.3,0.2,4.6c0.6,1,2,1.7,3.4,1.7
	c1,0,3-0.3,4.5-2.6c0.6-0.9,1.9-1.2,2.8-0.6c0.9,0.6,1.2,1.9,0.6,2.8C32.2,35.4,29.3,37,26.3,37z"/>
<path d="M26.7,43.6c-2.8,0-5.6-1.3-7.1-3.4c-1.3-1.7-1.6-3.8-1-5.8c0.3-1.1,1.4-1.7,2.5-1.3c1.1,0.3,1.7,1.4,1.3,2.5
	c-0.3,0.9-0.1,1.6,0.4,2.3c0.8,1,2.3,1.7,3.9,1.8c0.6-0.1,1.2-0.2,1.8-0.5c1.2-0.6,2-1.6,2.5-2.9c0.4-1.2,0.3-2.6-0.3-3.8
	c-0.5-1-0.1-2.2,0.9-2.7c1-0.5,2.2-0.1,2.7,0.9c1.1,2.1,1.3,4.5,0.5,6.8c-0.7,2.3-2.3,4.1-4.4,5.2c-1.1,0.5-2.2,0.9-3.4,0.9
	C26.8,43.6,26.8,43.6,26.7,43.6z"/>
<path d="M32.2,46.4c-2,0-3.7-0.8-4.7-2.2c-0.6-0.9-0.4-2.1,0.4-2.8c0.9-0.6,2.1-0.4,2.8,0.4c0.4,0.5,1.2,0.5,1.6,0.5
	c1.7,0,3.6-1.1,4.4-2.3c0.6-0.9,0.6-2.2,0-3.4c-0.8-1.7-2.5-2.8-4.7-3.1c-1.1-0.2-1.9-1.2-1.7-2.3c0.1-1.1,1.2-1.9,2.3-1.7
	C36.2,30,39,32,40.4,35c1.1,2.4,1,5.2-0.3,7.3c-1.6,2.4-4.6,4.1-7.6,4.2C32.4,46.4,32.3,46.4,32.2,46.4z"/>
</svg>
