<!-- Generated by IcoMoon.io -->
<svg version="1.1" xmlns="http://www.w3.org/2000/svg" width="1024" height="1024" viewBox="0 0 1024 1024">
<title></title>
<g id="icomoon-ignore">
</g>
<path fill="#000" d="M455.922 1014.262c-48.763 0-151.166-26.82-243.817-90.212-87.774-60.954-195.053-177.986-207.244-385.23-9.753-270.636 202.368-504.7 477.881-524.206 273.075-17.067 516.891 182.862 543.711 446.184 12.191 129.223-29.258 263.322-119.47 368.163-92.65 107.279-226.749 175.548-365.725 182.862-17.067 0-31.696-7.314-41.449-17.067-4.876 7.314-14.629 14.629-24.382 17.067-4.876 2.438-12.191 2.438-19.505 2.438zM460.799 916.736c14.629 0 29.258 7.314 39.011 17.067 7.314-12.191 21.943-19.505 36.572-19.505 114.594-7.314 224.311-60.954 297.456-148.728 73.145-85.336 107.279-190.177 95.088-295.018-21.943-212.12-216.997-373.039-438.87-358.41-219.435 14.629-394.983 207.244-385.23 419.365 17.067 336.467 329.152 382.792 351.096 385.23 0 0 2.438 0 4.876 0zM446.17 919.174c0 0 0 0 0 0s0 0 0 0zM446.17 919.174v0 0z"></path>
<path fill="#000" d="M736.311 736.311c-24.382 0-46.325-19.505-48.763-43.887-2.438-26.82 17.067-51.201 43.887-53.64 2.438 0 12.191-7.314 19.505-24.382 14.629-34.134 14.629-85.336-9.753-117.032-21.943-26.82-58.516-43.887-92.65-41.449s-63.392 26.82-85.336 65.83c-12.191 24.382-41.449 34.134-65.83 19.505-24.382-12.191-34.134-41.449-19.505-65.83 36.572-70.707 95.088-112.156 163.357-117.032 65.83-4.876 136.537 24.382 177.986 78.021 48.763 63.392 46.325 156.043 21.943 214.559-19.505 48.763-56.078 78.021-97.527 82.898-2.438 2.438-4.876 2.438-7.314 2.438z"></path>
<path fill="#000" d="M521.753 548.572c-17.067 0-34.134-9.753-41.449-24.382-39.011-65.83-43.887-136.537-12.191-199.93 31.696-60.954 97.527-107.279 165.795-112.156 92.65-9.753 165.795 43.887 199.93 92.65 29.258 43.887 39.011 87.774 19.505 126.785-12.191 24.382-41.449 34.134-65.83 24.382-24.382-12.191-34.134-41.449-24.382-65.83 0-2.438 0-17.067-17.067-34.134-19.505-24.382-58.516-48.763-107.279-46.325-36.572 2.438-70.707 29.258-87.774 60.954s-12.191 65.83 9.753 104.841c14.629 24.382 4.876 53.64-17.067 65.83-4.876 4.876-14.629 7.314-21.943 7.314z"></path>
<path fill="#000" d="M521.753 548.572c0 0-2.438 0 0 0-78.021-2.438-141.414-34.134-177.986-90.212s-43.887-131.661-17.067-199.93c24.382-63.392 85.336-109.717 160.919-119.47 65.83-9.753 129.223 12.191 158.481 51.201 17.067 21.943 12.191 51.201-9.753 68.269s-51.201 12.191-68.269-9.753c-7.314-4.876-31.696-17.067-68.269-12.191-19.505 2.438-65.83 12.191-82.898 58.516-14.629 39.011-12.191 80.459 7.314 109.717s53.64 43.887 97.527 46.325c26.82 0 48.763 24.382 46.325 51.201 0 26.82-19.505 46.325-46.325 46.325z"></path>
<path fill="#000" d="M373.025 633.908c-2.438 0-2.438 0-4.876 0-68.269-2.438-131.661-34.134-163.357-87.774-36.572-58.516-41.449-141.414-9.753-204.806 24.382-48.763 65.83-80.459 117.032-87.774 26.82-2.438 51.201 14.629 53.64 41.449s-14.629 51.201-41.449 53.64c-17.067 2.438-31.696 12.191-41.449 31.696-17.067 34.134-14.629 80.459 4.876 112.156 14.629 24.382 48.763 41.449 82.898 41.449 24.382 0 73.145-7.314 109.717-63.392 14.629-21.943 46.325-29.258 68.269-14.629s29.258 46.325 14.629 68.269c-46.325 70.707-117.032 109.717-190.177 109.717z"></path>
<path fill="#000" d="M382.777 794.827c-68.269 0-136.537-31.696-173.11-82.898-31.696-41.449-39.011-92.65-24.382-141.414 7.314-26.82 34.134-41.449 60.954-31.696 26.82 7.314 41.449 34.134 31.696 60.954-7.314 21.943-2.438 39.011 9.753 56.078 19.505 24.382 56.078 41.449 95.088 43.887 14.629-2.438 29.258-4.876 43.887-12.191 29.258-14.629 48.763-39.011 60.954-70.707 9.753-29.258 7.314-63.392-7.314-92.65-12.191-24.382-2.438-53.64 21.943-65.83s53.64-2.438 65.83 21.943c26.82 51.201 31.696 109.717 12.191 165.795-17.067 56.078-56.078 99.965-107.279 126.785-26.82 12.191-53.64 21.943-82.898 21.943-4.876 0-4.876 0-7.314 0z"></path>
<path fill="#000" d="M516.876 863.096c-48.763 0-90.212-19.505-114.594-53.64-14.629-21.943-9.753-51.201 9.753-68.269 21.943-14.629 51.201-9.753 68.269 9.753 9.753 12.191 29.258 12.191 39.011 12.191 41.449 0 87.774-26.82 107.279-56.078 14.629-21.943 14.629-53.64 0-82.898-19.505-41.449-60.954-68.269-114.594-75.583-26.82-4.876-46.325-29.258-41.449-56.078 2.438-26.82 29.258-46.325 56.078-41.449 87.774 12.191 156.043 60.954 190.177 134.099 26.82 58.516 24.382 126.785-7.314 177.986-39.011 58.516-112.156 99.965-185.301 102.403-2.438-2.438-4.876-2.438-7.314-2.438z"></path>
</svg>
