<!-- Generated by IcoMoon.io -->
<svg version="1.1" xmlns="http://www.w3.org/2000/svg" width="32" height="32" viewBox="0 0 32 32">
<title>codewars</title>
<path d="M14.261 31.57c-1.512 0-4.686-0.832-7.558-2.796-2.721-1.89-6.047-5.518-6.425-11.943-0.302-8.39 6.274-15.646 14.814-16.251 8.465-0.529 16.024 5.669 16.855 13.832 0.378 4.006-0.907 8.163-3.703 11.413-2.872 3.325-7.030 5.442-11.338 5.669-0.529 0-0.983-0.227-1.285-0.529-0.151 0.227-0.454 0.454-0.756 0.529-0.151 0.076-0.378 0.076-0.605 0.076zM14.413 28.547c0.454 0 0.907 0.227 1.21 0.529 0.227-0.378 0.68-0.605 1.134-0.605 3.552-0.227 6.954-1.89 9.221-4.611 2.268-2.645 3.325-5.896 2.947-9.146-0.68-6.576-6.727-11.565-13.605-11.111-6.803 0.454-12.245 6.425-11.943 13 0.529 10.431 10.204 11.867 10.884 11.942 0 0 0.076 0 0.151 0zM13.959 28.622c0 0 0 0 0 0s0 0 0 0zM13.959 28.622v0 0z"></path>
<path d="M22.954 22.954c-0.756 0-1.436-0.605-1.512-1.361-0.076-0.832 0.529-1.587 1.361-1.663 0.076 0 0.378-0.227 0.605-0.756 0.454-1.058 0.454-2.645-0.302-3.628-0.68-0.832-1.814-1.361-2.872-1.285s-1.965 0.832-2.645 2.041c-0.378 0.756-1.285 1.058-2.041 0.605-0.756-0.378-1.058-1.285-0.605-2.041 1.134-2.192 2.948-3.477 5.064-3.628 2.041-0.151 4.233 0.756 5.518 2.419 1.512 1.965 1.436 4.837 0.68 6.652-0.605 1.512-1.739 2.419-3.023 2.57-0.076 0.076-0.151 0.076-0.227 0.076z"></path>
<path d="M16.302 17.134c-0.529 0-1.058-0.302-1.285-0.756-1.21-2.041-1.361-4.233-0.378-6.198 0.983-1.89 3.023-3.325 5.14-3.477 2.872-0.302 5.14 1.361 6.198 2.872 0.907 1.361 1.209 2.721 0.605 3.93-0.378 0.756-1.285 1.058-2.041 0.756-0.756-0.378-1.058-1.285-0.756-2.041 0-0.076 0-0.529-0.529-1.058-0.605-0.756-1.814-1.512-3.325-1.436-1.134 0.076-2.192 0.907-2.721 1.89s-0.378 2.041 0.302 3.25c0.454 0.756 0.151 1.663-0.529 2.041-0.151 0.151-0.454 0.227-0.68 0.227z"></path>
<path d="M16.302 17.134c0 0-0.076 0 0 0-2.419-0.076-4.384-1.058-5.518-2.796s-1.361-4.081-0.529-6.198c0.756-1.965 2.645-3.401 4.989-3.703 2.041-0.302 4.006 0.378 4.913 1.587 0.529 0.68 0.378 1.587-0.302 2.117s-1.587 0.378-2.117-0.302c-0.227-0.151-0.983-0.529-2.117-0.378-0.605 0.076-2.041 0.378-2.57 1.814-0.454 1.21-0.378 2.494 0.227 3.401s1.663 1.361 3.023 1.436c0.832 0 1.512 0.756 1.436 1.587 0 0.832-0.605 1.436-1.436 1.436z"></path>
<path d="M11.692 19.779c-0.076 0-0.076 0-0.151 0-2.117-0.076-4.081-1.058-5.064-2.721-1.134-1.814-1.285-4.384-0.302-6.349 0.756-1.512 2.041-2.494 3.628-2.721 0.832-0.076 1.587 0.454 1.663 1.285s-0.454 1.587-1.285 1.663c-0.529 0.076-0.983 0.378-1.285 0.983-0.529 1.058-0.454 2.494 0.151 3.477 0.454 0.756 1.512 1.285 2.57 1.285 0.756 0 2.268-0.227 3.401-1.965 0.454-0.68 1.436-0.907 2.117-0.454s0.907 1.436 0.454 2.117c-1.436 2.192-3.628 3.401-5.896 3.401z"></path>
<path d="M11.994 24.768c-2.117 0-4.233-0.983-5.367-2.57-0.983-1.285-1.21-2.872-0.756-4.384 0.227-0.832 1.058-1.285 1.89-0.983 0.832 0.227 1.285 1.058 0.983 1.89-0.227 0.68-0.076 1.209 0.302 1.739 0.605 0.756 1.739 1.285 2.947 1.361 0.454-0.076 0.907-0.151 1.361-0.378 0.907-0.454 1.512-1.209 1.89-2.192 0.302-0.907 0.227-1.965-0.227-2.872-0.378-0.756-0.076-1.663 0.68-2.041s1.663-0.076 2.041 0.68c0.832 1.587 0.983 3.401 0.378 5.14-0.529 1.739-1.739 3.099-3.325 3.93-0.832 0.378-1.663 0.68-2.57 0.68-0.151 0-0.151 0-0.227 0z"></path>
<path d="M16.151 26.884c-1.512 0-2.796-0.605-3.552-1.663-0.454-0.68-0.302-1.587 0.302-2.117 0.68-0.454 1.587-0.302 2.117 0.302 0.302 0.378 0.907 0.378 1.209 0.378 1.285 0 2.721-0.832 3.325-1.739 0.454-0.68 0.454-1.663 0-2.57-0.605-1.285-1.89-2.117-3.552-2.343-0.832-0.151-1.436-0.907-1.285-1.739 0.076-0.832 0.907-1.436 1.739-1.285 2.721 0.378 4.837 1.89 5.896 4.157 0.832 1.814 0.756 3.93-0.227 5.518-1.209 1.814-3.477 3.099-5.744 3.174-0.076-0.076-0.151-0.076-0.227-0.076z"></path>
</svg>
