<svg width="32" height="32" xmlns="http://www.w3.org/2000/svg">
 <g>
  <title>background</title>
  <rect x="-1" y="-1" width="4.391614" height="4.391614" id="canvas_background" fill="none"/>
 </g>

 <g>
  <title>Layer 1</title>
  <path stroke="null" fill-rule="evenodd" d="m18.213156,26.755796l-4.332401,0l0,-15.163428l10.831017,0l0,4.332411l-6.498616,0l0,10.831017zm-2.166205,-25.994446c-4.74398,0 -8.946415,2.20953 -11.719153,5.610471l-3.444266,-3.444266l0,8.664812l8.664812,0l-3.249303,-3.249303c2.274509,-2.88105 5.783762,-4.765652 9.74791,-4.765652c6.801882,0 12.347366,5.545484 12.347366,12.347366s-5.545484,12.347356 -12.347366,12.347356a12.369019,12.369019 0 0 1 -12.347356,-12.347356c0,-0.736516 0.064988,-1.451361 0.194963,-2.166205l-2.837734,0c-0.108303,0.714844 -0.173291,1.429689 -0.173291,2.166205c0,8.361546 6.801873,15.163419 15.163419,15.163419s15.163428,-6.801873 15.163428,-15.163419s-6.801882,-15.163428 -15.163428,-15.163428z" id="svg_1"/>
 </g>
</svg>