<svg width="32" height="32" xmlns="http://www.w3.org/2000/svg">
 <g>
  <title>background</title>
  <rect x="-1" y="-1" width="34" height="34" id="canvas_background" fill="none"/>
 </g>

 <g>
  <title>Layer 1</title>
  <path stroke="null" id="svg_1" d="m22.612227,1.000008a4.268811,4.268811 0 0 0 -2.141902,7.967875l0,2.741635l-4.283804,4.283804l-4.283804,-4.283804l0,-2.741635a4.268811,4.268811 0 0 0 -2.141902,-7.967875a4.268811,4.268811 0 0 0 -2.141902,7.967875l0,3.812586l6.425706,6.425706l0,3.812586a4.268811,4.268811 0 0 0 2.141902,7.967875a4.268811,4.268811 0 0 0 2.141902,-7.967875l0,-3.812586l6.425706,-6.425706l0,-3.812586a4.268811,4.268811 0 0 0 -2.141902,-7.967875zm-12.851412,6.854086c-1.413655,0 -2.570282,-1.178046 -2.570282,-2.570282c0,-1.392236 1.178046,-2.570282 2.570282,-2.570282c1.392236,0 2.570282,1.178046 2.570282,2.570282c0,1.392236 -1.178046,2.570282 -2.570282,2.570282zm6.425706,21.41902c-1.413655,0 -2.570282,-1.178046 -2.570282,-2.570282c0,-1.392236 1.178046,-2.570282 2.570282,-2.570282c1.392236,0 2.570282,1.178046 2.570282,2.570282c0,1.392236 -1.178046,2.570282 -2.570282,2.570282zm6.425706,-21.41902c-1.413655,0 -2.570282,-1.178046 -2.570282,-2.570282c0,-1.392236 1.178046,-2.570282 2.570282,-2.570282c1.392236,0 2.570282,1.178046 2.570282,2.570282c0,1.392236 -1.178046,2.570282 -2.570282,2.570282z" fill-rule="evenodd"/>
 </g>
</svg>