<?xml version="1.0" encoding="utf-8"?>
<!-- Generated by IcoMoon.io -->
<!DOCTYPE svg PUBLIC "-//W3C//DTD SVG 1.1//EN" "http://www.w3.org/Graphics/SVG/1.1/DTD/svg11.dtd">
<svg version="1.1" xmlns="http://www.w3.org/2000/svg" xmlns:xlink="http://www.w3.org/1999/xlink" width="16" height="16" viewBox="0 0 16 16">
<path fill="#000000" d="M4.5 16c-2.481 0-4.5-2.019-4.5-4.5s2.019-4.5 4.5-4.5c0.552 0 1 0.448 1 1s-0.448 1-1 1c-1.378 0-2.5 1.121-2.5 2.5s1.122 2.5 2.5 2.5 2.5-1.121 2.5-2.5c0-0.552 0.448-1 1-1s1 0.448 1 1c0 2.481-2.019 4.5-4.5 4.5z"></path>
<path fill="#000000" d="M11.5 9c-0.552 0-1-0.448-1-1s0.448-1 1-1c1.379 0 2.5-1.122 2.5-2.5s-1.121-2.5-2.5-2.5-2.5 1.122-2.5 2.5c0 0.552-0.448 1-1 1s-1-0.448-1-1c0-2.481 2.019-4.5 4.5-4.5s4.5 2.019 4.5 4.5-2.019 4.5-4.5 4.5z"></path>
<path fill="#000000" d="M6 11c-0.256 0-0.512-0.098-0.707-0.293-0.391-0.39-0.391-1.024 0-1.414l4-4c0.39-0.391 1.024-0.391 1.414 0s0.391 1.024 0 1.414l-4 4c-0.195 0.195-0.451 0.293-0.707 0.293z"></path>
</svg>
