<!-- Generated by IcoMoon.io -->
<svg version="1.1" xmlns="http://www.w3.org/2000/svg" width="39" height="32" viewBox="0 0 39 32">
<title>udemy</title>
<path d="M13.273 0.132c1.74 0.54 2.28 1.935 2.28 3.525-0.015 1.26-0.165 2.52-0.465 3.749-0.645 2.805-1.44 5.579-2.1 8.369-0.54 2.295-1.035 4.619-1.050 6.989 0.015 0.645 0.12 1.29 0.3 1.905 0.345 1.23 1.38 1.32 2.16 0.57 0.495-0.48 0.945-0.99 1.35-1.545 1.95-2.595 3.674-5.354 5.144-8.249 1.425-2.775 4.679-9.044 4.874-9.419 1.020-1.875 3.839-1.56 4.694 0.27 0.48 0.99 0.75 2.085 0.795 3.18 0.075 2.37 0.3 8.984 0.405 9.929 0.195 1.83 1.365 2.415 2.925 1.395 0.945-0.615 1.8-1.395 2.655-2.13 0.795-0.705 1.215-0.63 1.605 0.36 0.345 0.87 0.195 1.74-0.090 2.565-0.96 2.79-3.045 4.274-5.819 4.874-0.885 0.195-1.8 0.21-2.7 0.060-1.995-0.33-3.27-1.485-4.034-3.27-0.735-1.725-0.96-6.629-1.125-7.259-0.27 0.57-3.465 7.154-5.144 9.659-1.050 1.605-2.325 3.060-3.794 4.304-1.455 1.215-3.105 1.965-5.039 2.010-2.34 0.060-4.034-1.005-5.204-2.985-0.75-1.275-1.065-2.7-1.17-4.169-0.15-2.055 0.18-4.064 0.63-6.074 0.15-0.645 0.255-1.305 0.42-2.13-0.645 0.33-1.065 0.63-1.545 0.795-0.57 0.195-1.185 0.39-1.785 0.375-2.13-0.060-2.445-2.415-2.445-2.805 0.72-0.555 1.485-1.065 2.145-1.665 3.15-2.85 5.519-6.269 7.229-10.139 0.57-1.275 1.275-2.37 2.535-3.045 0.42-0.18 0.795-0.195 1.365 0z"></path>
</svg>
