<?xml version="1.0" encoding="utf-8"?>
<!-- Generator: Adobe Illustrator 25.1.0, SVG Export Plug-In . SVG Version: 6.00 Build 0)  -->
<svg version="1.1" id="Layer_1" xmlns="http://www.w3.org/2000/svg" xmlns:xlink="http://www.w3.org/1999/xlink" x="0px" y="0px"
	 viewBox="0 0 64 64" style="enable-background:new 0 0 64 64;" xml:space="preserve">
<g id="codewars" transform="translate(2.001 2.004)">
	<path d="M27.69,50.58c-1.97,0-6.23-1.13-9.95-3.7c-3.63-2.5-8.05-7.29-8.49-15.84c-0.25-7.61,3.66-14.67,10.21-18.47
		c2.81-1.68,6.05-2.71,9.34-2.95c2.52-0.18,5.02,0.1,7.43,0.84c8.2,2.58,14,9.43,14.8,17.45c0.53,5.34-1.24,10.84-4.85,15.09
		c-3.77,4.43-9.25,7.17-15.04,7.52c-0.68,0.05-1.29-0.26-1.68-0.74c-0.24,0.33-0.58,0.58-1,0.71
		C28.27,50.55,28.01,50.58,27.69,50.58z M27.85,46.58c0.61,0,1.18,0.28,1.56,0.75c0.34-0.46,0.87-0.77,1.49-0.81
		c4.71-0.29,9.17-2.52,12.24-6.12c2.96-3.48,4.35-7.78,3.92-12.1c-0.64-6.42-5.35-11.93-12-14.02c-1.92-0.59-3.94-0.81-5.96-0.67
		c-2.67,0.2-5.3,1.03-7.6,2.41c-5.3,3.07-8.45,8.76-8.25,14.86c0.71,13.71,13.54,15.62,14.41,15.72
		C27.72,46.59,27.78,46.58,27.85,46.58z M27.24,46.68C27.24,46.68,27.24,46.68,27.24,46.68C27.24,46.68,27.24,46.68,27.24,46.68z
		 M27.24,46.68C27.24,46.68,27.24,46.68,27.24,46.68C27.24,46.68,27.24,46.68,27.24,46.68z"/>
	<path d="M39.19,39.2c-1,0-1.87-0.75-1.98-1.78c-0.12-1.1,0.67-2.09,1.76-2.21c0.11-0.01,0.45-0.28,0.75-0.98
		c0.58-1.37,0.6-3.53-0.36-4.79c-0.87-1.13-2.38-1.82-3.79-1.69c-1.41,0.12-2.6,1.05-3.46,2.68c-0.51,0.98-1.72,1.36-2.7,0.84
		c-0.98-0.51-1.36-1.72-0.84-2.7c1.5-2.86,3.86-4.57,6.65-4.81c2.74-0.24,5.6,1.03,7.3,3.24c2.04,2.65,1.88,6.41,0.87,8.79
		c-0.83,1.96-2.28,3.2-3.98,3.39C39.34,39.19,39.27,39.2,39.19,39.2z"/>
	<path d="M30.35,31.51c-0.69,0-1.36-0.35-1.73-0.99c-1.61-2.75-1.78-5.64-0.5-8.16c1.3-2.54,3.96-4.36,6.79-4.63
		c3.84-0.37,6.84,1.79,8.23,3.75c1.25,1.76,1.55,3.65,0.84,5.19c-0.46,1-1.65,1.44-2.66,0.98c-1-0.46-1.44-1.65-0.98-2.65
		c0.04-0.12-0.05-0.69-0.65-1.43c-0.84-1.02-2.43-2.04-4.4-1.85c-1.46,0.14-2.94,1.16-3.61,2.47c-0.66,1.29-0.53,2.75,0.39,4.32
		c0.56,0.95,0.24,2.18-0.71,2.74C31.04,31.42,30.69,31.51,30.35,31.51z"/>
	<path d="M30.35,31.51c-0.02,0-0.04,0-0.06,0c-3.16-0.09-5.73-1.4-7.24-3.68c-1.54-2.32-1.8-5.38-0.71-8.2
		c1.03-2.65,3.5-4.48,6.6-4.9c2.71-0.36,5.26,0.47,6.48,2.12c0.66,0.89,0.47,2.14-0.42,2.8c-0.89,0.66-2.14,0.47-2.8-0.42
		c-0.2-0.28-1.24-0.73-2.73-0.53c-0.79,0.11-2.7,0.55-3.41,2.38c-0.61,1.58-0.49,3.32,0.31,4.54c0.78,1.18,2.17,1.83,4.03,1.89
		c1.1,0.03,1.97,0.95,1.94,2.06C32.31,30.65,31.42,31.51,30.35,31.51z"/>
	<path d="M24.23,35.02c-0.06,0-0.12,0-0.18,0c-2.82-0.06-5.39-1.45-6.73-3.63c-1.5-2.45-1.67-5.83-0.43-8.41
		c0.98-2.04,2.67-3.31,4.77-3.58c1.1-0.14,2.1,0.63,2.24,1.73s-0.63,2.1-1.73,2.24c-0.73,0.09-1.29,0.54-1.67,1.34
		c-0.66,1.37-0.56,3.3,0.24,4.6c0.62,1.01,1.95,1.69,3.4,1.72c1.05,0,2.99-0.29,4.55-2.62c0.61-0.92,1.86-1.17,2.77-0.55
		c0.92,0.61,1.17,1.86,0.55,2.77C30.14,33.42,27.31,35.02,24.23,35.02z"/>
	<path d="M24.67,41.54c-2.81,0-5.61-1.32-7.13-3.36c-1.26-1.69-1.61-3.76-0.99-5.83c0.31-1.06,1.43-1.66,2.49-1.35
		c1.06,0.31,1.66,1.43,1.35,2.49c-0.26,0.87-0.14,1.63,0.37,2.3c0.77,1.03,2.31,1.73,3.85,1.75c0.63-0.05,1.23-0.23,1.8-0.51
		c1.17-0.59,2.04-1.61,2.45-2.86c0.41-1.25,0.31-2.58-0.29-3.75c-0.5-0.99-0.11-2.19,0.88-2.69c0.99-0.5,2.19-0.11,2.69,0.88
		c1.08,2.12,1.26,4.54,0.52,6.81s-2.32,4.11-4.44,5.18c-1.06,0.54-2.21,0.86-3.39,0.94C24.77,41.54,24.72,41.54,24.67,41.54z"/>
	<path d="M30.22,44.4c-2.03,0-3.69-0.76-4.71-2.17c-0.65-0.89-0.45-2.15,0.45-2.79c0.89-0.65,2.15-0.45,2.79,0.45
		c0.35,0.49,1.23,0.51,1.58,0.51c1.68-0.05,3.57-1.06,4.39-2.35c0.57-0.89,0.58-2.2,0.02-3.42c-0.78-1.7-2.49-2.85-4.68-3.15
		c-1.09-0.15-1.86-1.16-1.71-2.25s1.15-1.86,2.25-1.71c3.57,0.49,6.4,2.47,7.77,5.43c1.13,2.44,1.02,5.22-0.28,7.25
		c-1.55,2.42-4.63,4.11-7.65,4.19C30.37,44.4,30.3,44.4,30.22,44.4z"/>
</g>
</svg>
